<?xml version="1.0" encoding="utf-8"?>
<!-- Generator: Adobe Illustrator 16.0.0, SVG Export Plug-In . SVG Version: 6.00 Build 0)  -->
<!DOCTYPE svg PUBLIC "-//W3C//DTD SVG 1.1//EN" "http://www.w3.org/Graphics/SVG/1.1/DTD/svg11.dtd">
<svg version="1.1" id="Layer_1" xmlns="http://www.w3.org/2000/svg" xmlns:xlink="http://www.w3.org/1999/xlink" x="0px" y="0px"
	 width="728.363px" height="698.965px" viewBox="0 0 728.363 698.965" enable-background="new 0 0 728.363 698.965"
	 xml:space="preserve">
<g>
	<path fill="#CD6799" d="M504.574,233.846h-29.262l-9.042-27.831c-0.335-1.03-1.295-1.728-2.378-1.728s-2.043,0.698-2.378,1.728
		l-9.04,27.831h-29.266c-1.083,0-2.043,0.697-2.378,1.728c-0.334,1.03,0.032,2.159,0.908,2.795l23.675,17.2l-9.044,27.83
		c-0.334,1.03,0.032,2.158,0.908,2.795c0.438,0.318,0.954,0.478,1.47,0.478s1.031-0.159,1.47-0.478l23.675-17.2l23.673,17.2
		c0.877,0.637,2.062,0.637,2.939,0c0.876-0.636,1.242-1.765,0.908-2.795l-9.039-27.83l23.67-17.2
		c0.876-0.637,1.242-1.765,0.908-2.795C506.617,234.543,505.657,233.846,504.574,233.846z"/>
	<path fill="#CD6799" d="M609.232,233.846H579.97l-9.044-27.831c-0.335-1.03-1.295-1.728-2.378-1.728s-2.043,0.697-2.378,1.728
		l-9.044,27.831h-29.26c-1.083,0-2.043,0.697-2.378,1.728c-0.334,1.03,0.032,2.158,0.908,2.795l23.674,17.2l-9.043,27.83
		c-0.334,1.03,0.032,2.158,0.908,2.795c0.877,0.637,2.062,0.637,2.939,0l23.673-17.2l23.675,17.2
		c0.438,0.318,0.954,0.478,1.47,0.478s1.031-0.159,1.47-0.478c0.876-0.637,1.242-1.765,0.908-2.795l-9.044-27.83l23.675-17.2
		c0.876-0.636,1.242-1.765,0.908-2.795C611.275,234.543,610.315,233.846,609.232,233.846z"/>
	<path fill="#CD6799" d="M716.266,236.671c-0.335-1.03-1.295-1.728-2.378-1.728h-29.264l-9.04-27.831
		c-0.335-1.03-1.295-1.728-2.378-1.728s-2.043,0.697-2.378,1.728l-9.044,27.831h-29.262c-1.083,0-2.043,0.697-2.378,1.728
		c-0.334,1.03,0.032,2.158,0.908,2.795l23.674,17.201l-9.043,27.83c-0.334,1.03,0.032,2.158,0.908,2.795
		c0.877,0.637,2.062,0.637,2.939,0l23.675-17.2l23.673,17.2c0.438,0.318,0.954,0.478,1.47,0.478s1.031-0.159,1.47-0.478
		c0.876-0.637,1.242-1.765,0.908-2.795l-9.043-27.83l23.674-17.201C716.234,238.83,716.6,237.701,716.266,236.671z"/>
</g>
<path fill="#CD6799" d="M710.679,359.898c-0.785-0.325-99.18-0.215-99.18-0.215c-5.225,0.226-10.59,0.644-12.328,1.16
	c-2.641,0.787-5.186,7.141-5.781,16.996c-0.598,9.852,3.502,11.154,4.385,11.312c0.584,0.104,102.652,0.201,104.98,0.035
	c2.75-0.197,7.041-7.803,9.756-17.295C715.226,362.404,711.505,360.245,710.679,359.898z"/>
<path fill="#CD6799" d="M712.679,304.899c-0.785-0.326-11.453-0.285-20.18-0.407c0,0-264.137,0.161-265.957,0.292
	c-2.748,0.197-7.041,7.802-9.754,17.295c-2.717,9.488,1.004,11.648,1.83,11.994c0.688,0.286,283.809,0.282,286.137,0.115
	c2.75-0.197,7.041-7.802,9.756-17.295C717.226,307.405,713.505,305.245,712.679,304.899z"/>
<path fill="#CD6799" d="M615.123,463.511c-15.199,0.685-28.732,4.016-40.57,8.904c-0.144-0.139-0.298-0.266-0.465-0.378
	c-0.196-3.507-0.342-5.983-0.342-5.983l0.342-6.145c0.889-15.948,1.842-30.986,2.832-44.698c0.469-5.896,1.064-13.643,1.789-23.277
	c0.65-8.631,1.174-15.541,1.564-20.726l0.531-6.958c0.932-5.447,2.166-10.255,2.043-10.777c-0.197-0.828-1.664-4.65-11.158-3.556
	c-9.498,1.097-17.445,3.961-18.074,6.511c-0.629,2.551-1.711,8.311-2.168,14.161l0.079,0.009l-4.614,39.894
	c-0.088,3.108-0.553,7.03-1.387,11.655c-0.848,4.7-2.145,9.381-3.854,13.906c-1.754,4.629-4.014,8.725-6.717,12.18
	c-3.061,3.902-6.824,6.097-11.186,6.52c-2.861,0.279-5.381-0.237-7.488-1.521c-1.928-1.173-3.551-2.8-4.828-4.831
	c-1.182-1.889-2.1-4.078-2.725-6.512c-0.588-2.263-1.012-4.666-1.264-7.14c-0.475-4.619-0.432-9.983,0.123-15.94l4.4-47.26
	c0.186-1.984,0.414-3.887,0.674-5.717c-0.008,0.001-0.017,0.002-0.024,0.003c0.84-3.704,1.576-6.501,1.491-6.905
	c-0.188-0.877-1.635-4.938-11.666-4.015c-10.031,0.927-18.477,3.752-19.205,6.422c-0.727,2.672-2.016,8.713-2.645,14.867
	c0,0-3.87,38.024-3.665,57.337c-7.396,1.686-14.29,4.003-20.671,6.77c0.033,0.09,0.069,0.178,0.104,0.268
	c-0.801,0.368-1.597,0.739-2.381,1.123c-5.1-10.102-10.199-19.102-11.1-25.7c-1-7.7-2.199-12.4-1-21.601
	c1.199-9.199,6.6-22.299,6.5-23.299c-0.102-1-1.199-5.701-12.199-5.802c-11-0.1-20.5,2.101-21.602,5c-1.1,2.9-3.199,9.5-4.6,16.302
	c-1.9,9.998-22,45.698-33.5,64.398c-3.699-7.3-6.9-13.7-7.6-18.8c-1-7.7-2.199-12.4-1-21.602c1.199-9.198,6.6-22.3,6.5-23.3
	c-0.102-1-1.199-5.699-12.2-5.8c-11-0.101-20.5,2.101-21.602,5c-1.1,2.899-2.3,9.7-4.6,16.3c-2.3,6.602-29,66.2-36,81.602
	c-3.6,7.898-6.7,14.198-8.9,18.5c0,0-0.1,0.3-0.4,0.8c-1.9,3.7-3,5.7-3,5.7s0,0,0,0.1c-1.5,2.7-3.1,5.2-3.9,5.2
	c-0.6,0-1.7-7.2,0.2-17c4-20.7,13.5-52.9,13.4-54c0-0.602,1.8-6.2-6.2-9.102c-7.8-2.898-10.6,1.9-11.3,1.9c-0.7,0-1.2,1.7-1.2,1.7
	s8.7-36.2-16.6-36.2c-15.8,0-37.6,17.3-48.4,32.9c-6.8,3.698-21.3,11.6-36.8,20.1c-5.9,3.3-12,6.6-17.7,9.7
	c-0.4-0.4-0.8-0.9-1.2-1.3c-30.6-32.7-87.2-55.802-84.8-99.7c0.9-16,6.4-58,108.7-109c83.8-41.801,150.9-30.301,162.5-4.801
	c16.6,36.4-35.9,104-122.9,113.801c-33.2,3.699-50.6-9.1-55-13.9c-4.6-5-5.3-5.3-7-4.3c-2.8,1.5-1,6,0,8.601
	c2.6,6.799,13.3,18.799,31.4,24.699c16,5.2,54.9,8.1,102-10.1c52.7-20.4,93.899-77.1,81.8-124.6
	c-12.299-48.201-92.3-64.101-168-37.201c-45,16-93.8,41.101-128.9,73.9c-41.7,39-48.3,72.9-45.6,87.101
	c9.7,50.399,79.2,83.199,107,107.501c-1.4,0.8-2.7,1.5-3.8,2.1c-13.9,6.9-66.9,34.6-80.1,63.9c-15,33.198,2.4,57,13.9,60.198
	c35.7,9.9,72.4-7.898,92.1-37.3c19.7-29.398,17.3-67.6,8.2-85.1c-0.1-0.2-0.2-0.4-0.4-0.602c3.6-2.1,7.3-4.3,10.9-6.398
	c7.1-4.2,14.1-8.102,20.1-11.3c-3.4,9.3-5.9,20.398-7.1,36.398c-1.5,18.8,6.2,43.2,16.3,52.8c4.5,4.2,9.8,4.302,13.2,4.302
	c11.8,0,17.1-9.802,23-21.4c7.2-14.2,13.7-30.7,13.7-30.7s-8.1,44.602,13.9,44.602c8,0,16.1-10.4,19.7-15.7c0,0.1,0,0.1,0,0.1
	s0.2-0.3,0.6-1c0.8-1.3,1.3-2.1,1.3-2.1s0-0.102,0-0.2c3.2-5.6,10.399-18.3,21.1-39.4C329.6,461.4,342.9,427.4,342.9,427.4
	s1.198,8.3,5.3,22.1c2.398,8.1,7.398,17,11.398,25.6c-3.198,4.5-5.198,7-5.198,7s0,0,0.1,0.102c-2.6,3.398-5.4,7.1-8.5,10.7
	c-10.9,13-23.9,27.898-25.7,32.198c-2.1,5.102-1.6,8.802,2.4,11.802c2.898,2.198,8.1,2.5,13.398,2.198
	c9.802-0.698,16.7-3.1,20.102-4.6c5.3-1.9,11.5-4.8,17.299-9.1c10.701-7.9,17.201-19.2,16.6-34.102c-0.299-8.2-3-16.398-6.299-24.1
	c1-1.4,1.9-2.8,2.9-4.2c16.898-24.7,30-51.8,30-51.8s1.199,8.3,5.299,22.1c2,7,6.1,14.602,9.701,22
	c-15.9,12.9-25.701,27.9-29.201,37.7c-6.299,18.2-1.4,26.4,7.9,28.3c4.199,0.9,10.199-1.1,14.6-3c5.6-1.8,12.201-4.898,18.5-9.5
	c10.701-7.898,21-18.898,20.4-33.8c-0.232-5.264-3.986-20.24-3.682-20.362c0.041-0.593,0.043-1.181,0.02-1.765
	c0.052,0.526,0.094,1.056,0.098,1.593c5.574-2.061,11.786-3.697,18.642-4.766c0.766,3.189,1.857,6.122,3.269,8.762
	c2.283,4.27,5.127,7.834,8.451,10.597c3.318,2.759,7.059,4.787,11.121,6.034c4.055,1.244,8.188,1.672,12.285,1.275
	c4.695-0.455,9.518-2.178,14.326-5.125c5.002-3.062,9.795-6.969,14.248-11.614l6.049-6.31l-0.942,28.08
	c-5.125,2.168-10.302,4.259-15.214,6.863c-0.179,0.095-0.327,0.215-0.464,0.343c-17.723,9.172-60.328,33.244-71.739,58.571
	c-14.299,31.646,2.288,54.335,13.251,57.384c34.031,9.438,69.016-7.529,87.794-35.557c9.435-14.079,13.542-30.269,14.203-45.017
	c0.07-0.319,0.145-0.635,0.206-0.962c0.884-4.675,1.02-9.535,1.089-14.277c0.074-5.137-0.177-10.242-0.535-15.345
	c0.102-1.91,0.194-3.82,0.288-5.73c12.729-4.667,28.593-7.287,48.29-5.839c49.143,3.639,60.055,32.927,58.732,45.492
	c-1.32,12.562-11.309,19.766-14.609,22.001c-3.301,2.233-4.4,2.979-4.031,4.465c0.504,2.181,2.146,2.015,5.004,1.502
	c3.979-0.859,25.26-11.119,25.211-34.137C696.085,491.999,665.964,461.177,615.123,463.511z M136.4,554
	c-15.8,17.2-37.8,23.7-47.3,18.2c-10.2-5.9-6.2-31.3,13.2-49.5c11.8-11.102,27-21.4,37.1-27.7c2.3-1.4,5.7-3.4,9.8-5.9
	c0.7-0.398,1.1-0.6,1.1-0.6c0.8-0.5,1.6-1,2.4-1.5C159.8,513,153,535.9,136.4,554z M251.3,475.8c-5.5,13.4-17,47.7-24,45.8
	c-6-1.6-9.7-27.6-1.2-53.3c4.3-12.898,13.4-28.3,18.7-34.3c8.6-9.6,18.1-12.8,20.4-8.9C268.2,430.1,254.8,467.4,251.3,475.8z
	 M367.701,491.3c0,15.3-14.8,25.7-21.401,29.8c-2.3,1.2-4.5,2-5.5,1.4c-0.7-0.4,1-2,1-2s11.9-12.8,16.602-18.6
	c2.698-3.4,5.898-7.4,9.299-11.9V491.3z M441.701,474.9c-0.102,19.398-13.9,26.6-22.201,29.5c-1.699-1.2-1.4-5.2,4.301-17.7
	c2.199-4.9,7.4-13.102,16.299-21C441.099,468.9,441.8,472,441.701,474.9z M460.219,452.606c0.002,0.015,0.003,0.029,0.005,0.043
	C460.223,452.635,460.22,452.621,460.219,452.606z M551.819,500.61c-0.179,3.014-0.272,5.991-0.233,8.976
	c-1.063,9.792-2.803,19.528-5.535,28.83c-2.374,8.085-5.683,15.269-10.421,22.248c-0.648,0.954-1.38,1.839-2.147,2.694
	c-14.542,13.243-32.652,17.95-40.894,13.178c-9.724-5.624-5.91-29.836,12.583-47.186c10.764-10.127,24.483-19.543,34.083-25.599
	c1.164-0.555,2.328-1.11,3.495-1.658c2.563-1.069,5.117-2.162,7.689-3.212c0.642-0.263,1.173-0.617,1.63-1.021
	C551.964,498.777,551.873,499.693,551.819,500.61z"/>
</svg>
