<svg xmlns="http://www.w3.org/2000/svg" width="728.362" height="456.045" viewBox="0 1058.386 728.362 456.045" enable-background="new 0 1058.386 728.362 456.045"><path fill="#CD6799" d="M615.122 1351.6c-15.383.693-29.063 4.094-41.002 9.079-.212-3.795-.373-6.536-.373-6.536l.341-6.145c.89-15.948 1.842-30.986 2.832-44.698.47-5.896 1.065-13.643 1.79-23.277.65-8.632 1.173-15.542 1.565-20.726l.531-6.972c.932-5.441 2.164-10.242 2.041-10.765-.197-.828-1.664-4.65-11.158-3.555-9.498 1.097-17.446 3.961-18.074 6.511-.629 2.55-1.712 8.31-2.168 14.161l.078.009-4.614 39.894c-.087 3.109-.553 7.03-1.387 11.655-.847 4.701-2.144 9.381-3.853 13.907-1.753 4.629-4.013 8.724-6.717 12.179-3.059 3.903-6.824 6.097-11.185 6.52-2.861.279-5.381-.237-7.489-1.521-1.927-1.172-3.55-2.799-4.827-4.831-1.181-1.888-2.099-4.078-2.725-6.511-.587-2.263-1.012-4.666-1.264-7.14-.474-4.619-.432-9.983.123-15.94l4.401-47.26c.185-1.985.413-3.887.674-5.717l-.027.003c.84-3.705 1.577-6.503 1.491-6.907-.187-.876-1.634-4.938-11.665-4.014-10.032.927-18.478 3.752-19.205 6.422-.727 2.672-2.016 8.713-2.646 14.867 0 0-3.87 38.024-3.664 57.337-7.395 1.686-14.29 4.004-20.671 6.771l.104.266c-.801.368-1.597.74-2.38 1.123-5.1-10.101-10.2-19.101-11.1-25.7-1-7.7-2.2-12.4-1-21.601 1.199-9.199 6.6-22.299 6.5-23.299-.101-1-1.2-5.701-12.2-5.801s-20.5 2.1-21.601 5c-1.1 2.9-3.199 9.5-4.6 16.301-1.9 9.999-22 45.699-33.5 64.399-3.7-7.3-6.9-13.7-7.6-18.8-1-7.7-2.2-12.4-1-21.601 1.199-9.199 6.6-22.3 6.5-23.3-.101-1-1.2-5.699-12.2-5.8s-20.5 2.101-21.601 5c-1.1 2.899-2.3 9.7-4.6 16.3-2.3 6.601-29 66.2-36 81.601-3.6 7.899-6.7 14.199-8.9 18.5 0 0-.1.3-.4.8-1.9 3.7-3 5.7-3 5.7v.1c-1.5 2.7-3.1 5.2-3.9 5.2-.6 0-1.7-7.2.2-17 4-20.7 13.5-52.9 13.4-54 0-.601 1.8-6.2-6.2-9.101-7.8-2.899-10.6 1.9-11.3 1.9-.7 0-1.2 1.7-1.2 1.7s8.7-36.2-16.6-36.2c-15.8 0-37.6 17.3-48.4 32.9-6.8 3.699-21.3 11.6-36.8 20.1-5.9 3.3-12 6.6-17.7 9.7l-1.2-1.3c-30.6-32.7-87.2-55.801-84.8-99.7.9-16 6.4-58 108.7-109 83.8-41.801 150.9-30.301 162.5-4.801 16.6 36.4-35.9 104-122.9 113.801-33.2 3.699-50.6-9.1-55-13.9-4.6-5-5.3-5.3-7-4.3-2.8 1.5-1 6 0 8.601 2.6 6.799 13.3 18.799 31.4 24.699 16 5.2 54.9 8.1 102-10.1 52.7-20.4 93.9-77.1 81.8-124.6-12.3-48.201-92.3-64.101-168-37.201-45 16-93.8 41.101-128.9 73.9-41.7 39-48.3 72.9-45.6 87.1 9.7 50.4 79.2 83.2 107 107.501-1.4.8-2.7 1.5-3.8 2.1-13.9 6.9-66.9 34.6-80.1 63.9-15 33.199 2.4 57 13.9 60.199 35.7 9.9 72.4-7.899 92.1-37.3 19.7-29.399 17.3-67.6 8.2-85.1-.1-.2-.2-.4-.4-.601 3.6-2.1 7.3-4.3 10.9-6.399 7.1-4.2 14.1-8.101 20.1-11.3-3.4 9.3-5.9 20.399-7.1 36.399-1.5 18.8 6.2 43.2 16.3 52.8 4.5 4.2 9.8 4.301 13.2 4.301 11.8 0 17.1-9.801 23-21.4 7.2-14.2 13.7-30.7 13.7-30.7s-8.1 44.601 13.9 44.601c8 0 16.1-10.4 19.7-15.7v.1s.2-.3.6-1c.8-1.3 1.3-2.1 1.3-2.1v-.2c3.2-5.6 10.399-18.3 21.1-39.4 13.8-27.199 27.101-61.199 27.101-61.199s1.199 8.3 5.3 22.1c2.399 8.1 7.399 17 11.399 25.6-3.199 4.5-5.199 7-5.199 7l.1.101c-2.6 3.399-5.4 7.1-8.5 10.7-10.9 13-23.9 27.899-25.7 32.199-2.1 5.101-1.6 8.801 2.4 11.801 2.899 2.199 8.1 2.5 13.399 2.199 9.801-.699 16.7-3.1 20.101-4.6 5.3-1.9 11.5-4.8 17.3-9.1 10.7-7.9 17.2-19.2 16.6-34.101-.3-8.2-3-16.399-6.3-24.1l2.9-4.2c16.899-24.7 30-51.8 30-51.8s1.2 8.3 5.3 22.1c2 7 6.1 14.601 9.7 22-15.9 12.9-25.7 27.9-29.2 37.7-6.3 18.2-1.4 26.4 7.9 28.3 4.199.9 10.199-1.1 14.6-3 5.6-1.8 12.2-4.899 18.5-9.5 10.7-7.899 21-18.899 20.4-33.8-.232-5.265-3.986-20.241-3.682-20.363.04-.59.042-1.174.019-1.755.053.524.094 1.05.098 1.584 5.575-2.062 11.787-3.698 18.645-4.766.765 3.188 1.856 6.121 3.268 8.762 2.282 4.269 5.127 7.834 8.451 10.597 3.319 2.758 7.059 4.787 11.12 6.034 4.055 1.244 8.188 1.672 12.287 1.275 4.695-.455 9.517-2.178 14.326-5.125 5.002-3.062 9.794-6.969 14.248-11.614l6.048-6.31-1.026 30.553s-11.904 7.538-15.668 12.253c-1.9 2.378-8.019 7.496-12.81 14.057-4.933 6.759-7.903 12.121-9.169 14.379-2.506 4.572-7.835 13.978-9.084 16.378-15.707 30.152-5.58 48.831-3.29 52.054 2.262 3.18 15.093 10.141 18.956 10.747 3.911.614 8.188.703 12.724.265 5.538-.535 10.603-1.896 15.052-4.042 4.453-2.146 8.217-4.788 11.189-7.845 3.036-3.134 5.764-6.874 8.101-11.111 2.375-4.303 4.235-8.633 5.53-12.867 1.306-4.303 2.362-9.047 3.132-14.095.777-5.07 1.224-9.617 1.33-13.516l.063-2.237c.093-3.324.187-6.786.292-10.382-.049-1.909.021-4.524.217-7.993.036-12.146.31-20.282.838-24.871.066-.577-.019-3.233-.173-6.715 13.013-5.075 29.419-8.012 50.022-6.497 49.142 3.639 60.055 32.927 58.733 45.492-1.321 12.562-11.309 19.766-14.61 22.001-3.301 2.234-4.4 2.979-4.031 4.465.504 2.181 2.145 2.015 5.004 1.502 3.977-.859 25.26-11.119 25.211-34.137.827-29.156-29.294-59.978-80.137-57.644zm-478.722 90.489c-15.8 17.2-37.8 23.7-47.3 18.2-10.2-5.9-6.2-31.3 13.2-49.5 11.8-11.101 27-21.4 37.1-27.7 2.3-1.4 5.7-3.4 9.8-5.9.7-.399 1.1-.6 1.1-.6l2.4-1.5c7.1 26 .3 48.9-16.3 67zm114.9-78.2c-5.5 13.4-17 47.7-24 45.8-6-1.6-9.7-27.6-1.2-53.3 4.3-12.899 13.4-28.3 18.7-34.3 8.6-9.6 18.1-12.8 20.4-8.9 3 4.999-10.4 42.3-13.9 50.7zm116.4 15.5c0 15.3-14.8 25.7-21.4 29.8-2.3 1.2-4.5 2-5.5 1.4-.7-.4 1-2 1-2s11.9-12.8 16.601-18.6c2.699-3.4 5.899-7.4 9.3-11.9v1.3zm74-16.4c-.101 19.399-13.9 26.6-22.2 29.5-1.7-1.2-1.4-5.2 4.3-17.7 2.2-4.9 7.4-13.101 16.3-21 1 3.2 1.7 6.3 1.6 9.2zm18.521-22.281l.001.01-.001-.01zm84.978 112.07c-2.828 6.119-3.32 5.579-4.385 7.595-1.054 1.984-2.355 3.877-3.871 5.629-1.674 1.92-3.623 3.354-5.8 4.263-2.019.841-4.348 1.393-6.918 1.642-.297.027-.587.046-.868.059-3.95.158-6.152-1.426-7.303-2.786-2.352-2.773-2.729-7.263-1.153-13.723 2.758-11.005 6.931-22.091 12.407-32.961 5.552-11.03 11.634-19.398 18.074-24.875l5.273-4.481.446 28.879c-.309 17.024-2.271 22.907-5.902 30.759z"/><path fill="#CD6799" d="M504.574 1116.935h-29.263l-9.042-27.83c-.335-1.03-1.295-1.728-2.378-1.728s-2.043.697-2.378 1.728l-9.04 27.83h-29.265c-1.083 0-2.043.697-2.378 1.728-.334 1.03.032 2.158.908 2.795l23.675 17.2-9.044 27.83c-.334 1.03.032 2.158.908 2.795.877.637 2.062.637 2.939 0l23.674-17.2 23.674 17.2c.438.318.954.478 1.47.478s1.031-.159 1.47-.478c.876-.637 1.242-1.765.908-2.795l-9.04-27.83 23.671-17.2c.876-.637 1.242-1.765.908-2.795-.334-1.031-1.294-1.728-2.377-1.728zm104.657 0h-29.261l-9.044-27.83c-.335-1.03-1.295-1.728-2.378-1.728s-2.043.697-2.378 1.728l-9.044 27.83h-29.261c-1.083 0-2.043.697-2.378 1.728-.334 1.03.032 2.158.908 2.795l23.674 17.2-9.043 27.83c-.334 1.03.032 2.158.908 2.795.877.637 2.062.637 2.939 0l23.674-17.2 23.674 17.2c.438.318.954.478 1.47.478s1.031-.159 1.47-.478c.876-.637 1.242-1.765.908-2.795l-9.043-27.83 23.674-17.2c.876-.637 1.242-1.765.908-2.795-.334-1.031-1.294-1.728-2.377-1.728zm107.036 2.826c-.335-1.03-1.295-1.728-2.378-1.728h-29.265l-9.04-27.831c-.335-1.03-1.295-1.728-2.378-1.728s-2.043.697-2.378 1.728l-9.044 27.831h-29.261c-1.083 0-2.043.697-2.378 1.728-.334 1.03.032 2.158.908 2.795l23.674 17.2-9.043 27.829c-.334 1.03.032 2.158.908 2.795.877.637 2.062.637 2.939 0l23.674-17.2 23.674 17.2c.438.318.954.478 1.47.478s1.031-.159 1.47-.478c.876-.637 1.242-1.765.908-2.795l-9.043-27.829 23.674-17.2c.876-.637 1.243-1.765.909-2.795z"/><path fill="#CD6799" d="M710.68 1247.988c-.785-.326-99.18-.216-99.18-.216-5.226.226-10.591.644-12.328 1.161-2.641.787-5.186 7.141-5.781 16.996-.598 9.851 3.502 11.154 4.383 11.312.585.104 102.653.202 104.982.035 2.749-.197 7.041-7.802 9.755-17.295 2.716-9.487-1.005-11.647-1.831-11.993zm2-55c-.785-.326-11.454-.285-20.18-.407 0 0-264.137.161-265.957.292-2.749.197-7.041 7.802-9.755 17.295-2.716 9.488 1.005 11.648 1.831 11.994.688.286 283.808.282 286.137.115 2.749-.197 7.041-7.802 9.755-17.295 2.716-9.488-1.005-11.648-1.831-11.994z"/><path fill="#CD6799" d="M422.33 1144.74"/></svg>